<svg width="666" height="667" viewBox="0 0 666 667" fill="none" xmlns="http://www.w3.org/2000/svg">
<path d="M665.58 332.79C665.624 294.309 658.975 256.113 645.93 219.91H645.72C628.72 221.3 610.92 222.56 592.41 223.7C514.93 228.47 425.29 231.04 332.79 231.04C240.29 231.04 150.65 228.47 73.1702 223.7C54.6602 222.56 36.8502 221.3 19.8602 219.91H19.6502C6.60536 256.113 -0.0437152 294.309 0.000216279 332.79V333.39C0.000216279 517.18 149 666.18 332.79 666.18C516.58 666.18 665.58 517.18 665.58 333.39C665.58 333.29 665.58 333.19 665.58 333.09C665.58 332.99 665.58 332.89 665.58 332.79ZM332.79 268.37C429.86 268.37 522.79 265.61 602.57 260.48C606.986 281.527 609.208 302.975 609.2 324.48C609.2 486.29 485.45 617.48 332.79 617.48C180.13 617.48 56.3802 486.31 56.3802 324.5C56.3727 302.995 58.5945 281.547 63.0102 260.5C142.84 265.61 235.72 268.37 332.79 268.37Z" fill="white"/>
<path d="M94.9998 175C102.63 161.436 111.324 148.499 121 136.31C171.7 72.25 247.78 31.51 332.84 31.51C417.9 31.51 493.98 72.25 544.68 136.31C554.308 148.504 562.955 161.441 570.54 175C590.26 176.08 609.28 177.3 627.47 178.64H627.8C620.708 165.077 612.689 152.019 603.8 139.56C543.43 55.09 444.55 0 332.79 0C221.03 0 122.15 55.09 61.7998 139.6C52.9104 152.059 44.8914 165.117 37.7998 178.68H38.1298C56.2998 177.31 75.3198 176.09 94.9998 175Z" fill="white"/>
</svg>
